<?xml version="1.0" standalone="no"?>
<!DOCTYPE svg PUBLIC "-//W3C//DTD SVG 20010904//EN"
 "http://www.w3.org/TR/2001/REC-SVG-20010904/DTD/svg10.dtd">
<svg version="1.0" xmlns="http://www.w3.org/2000/svg"
 width="500.000000pt" height="171.000000pt" viewBox="0 0 500.000000 171.000000"
 preserveAspectRatio="xMidYMid meet">

<g transform="translate(0.000000,171.000000) scale(0.100000,-0.100000)"
fill="#000133" stroke="none">
<path d="M697 1430 c-137 -35 -258 -167 -269 -295 l-3 -40 71 -3 70 -3 13 52
c28 110 139 176 251 149 60 -15 101 -41 201 -131 69 -62 81 -69 118 -69 l41 0
0 54 0 55 -75 67 c-87 78 -153 124 -214 148 -54 21 -153 29 -204 16z"/>
<path d="M760 1217 c-73 -66 -75 -57 36 -168 115 -115 123 -109 -104 -75
l-152 23 -55 -56 -55 -56 192 -192 193 -193 42 42 c24 23 43 47 43 53 -1 5
-41 52 -90 104 -49 52 -88 96 -86 98 2 2 68 -6 147 -17 203 -28 196 -29 257
33 l52 52 -193 192 -192 192 -35 -32z"/>
<path d="M2859 1151 c-33 -33 -35 -50 -14 -90 16 -32 33 -41 78 -41 36 1 58
15 75 47 18 34 14 52 -17 84 -40 39 -82 39 -122 0z"/>
<path d="M3715 1168 c-53 -28 -62 -93 -19 -127 54 -42 144 -12 144 49 0 42 -9
59 -41 75 -33 18 -57 18 -84 3z"/>
<path d="M2610 1153 c-49 -25 -77 -72 -85 -143 -6 -55 -9 -60 -31 -60 -22 0
-24 -4 -24 -50 0 -47 2 -50 25 -50 l25 0 0 -150 0 -150 85 0 85 0 0 150 0 150
50 0 50 0 0 50 0 50 -55 0 c-51 0 -56 2 -66 26 -7 20 -6 32 6 50 17 26 47 30
89 14 25 -9 26 -8 26 23 0 17 3 41 6 53 4 15 -1 23 -23 33 -49 22 -124 24
-163 4z"/>
<path d="M4038 1030 c-34 -75 -38 -80 -67 -80 -31 0 -31 -1 -31 -50 0 -47 2
-50 25 -50 25 0 25 0 25 -95 0 -112 15 -156 62 -185 37 -23 115 -27 167 -9 30
11 32 15 27 42 -3 16 -6 40 -6 53 0 21 -3 24 -25 18 -46 -12 -65 18 -65 103
l0 73 50 0 50 0 0 50 0 50 -50 0 -50 0 0 80 0 80 -38 0 c-37 0 -38 -1 -74 -80z"/>
<path d="M1390 825 l0 -275 65 0 65 0 0 140 c0 77 4 140 8 140 4 0 55 -63 112
-140 l104 -140 78 0 78 0 0 275 0 275 -70 0 -69 0 -3 -144 -3 -144 -104 144
-104 144 -79 0 -78 0 0 -275z"/>
<path d="M2095 931 c-77 -36 -115 -95 -115 -181 0 -124 84 -199 223 -200 148
0 234 82 225 216 -5 76 -38 126 -108 162 -57 29 -166 30 -225 3z m168 -123
c24 -28 22 -89 -3 -116 -47 -50 -130 -11 -130 62 1 75 86 110 133 54z"/>
<path d="M2840 800 c0 -164 6 -190 56 -229 29 -23 112 -29 158 -11 27 10 32
29 20 89 -5 24 -11 30 -24 26 -10 -3 -25 2 -34 10 -13 13 -16 40 -16 141 l0
124 -80 0 -80 0 0 -150z"/>
<path d="M3130 750 l0 -200 79 0 79 0 4 113 c4 119 13 147 55 166 33 15 40 14
63 -9 18 -18 20 -33 20 -145 l0 -126 83 3 82 3 -2 132 c-1 108 -5 140 -22 177
-29 66 -69 88 -150 83 -58 -3 -66 -6 -97 -39 l-33 -36 -3 36 -3 37 -77 3 -78
3 0 -201z"/>
<path d="M3672 798 c4 -170 14 -205 68 -233 33 -17 122 -20 151 -5 15 9 19 22
19 66 0 51 -2 55 -20 49 -43 -14 -50 8 -50 146 l0 129 -86 0 -86 0 4 -152z"/>
<path d="M4405 931 c-140 -64 -155 -257 -27 -345 34 -24 56 -31 107 -34 76 -5
145 4 170 21 14 11 16 22 10 61 -7 43 -10 47 -29 41 -11 -4 -49 -9 -82 -12
-54 -5 -65 -2 -84 17 -12 12 -19 24 -17 27 5 4 194 32 226 33 19 0 9 77 -16
127 -40 77 -163 108 -258 64z m145 -91 c26 -26 20 -36 -27 -44 -21 -3 -49 -9
-62 -12 -21 -6 -23 -4 -16 17 8 30 41 59 66 59 10 0 28 -9 39 -20z"/>
<path d="M420 602 l0 -58 85 -74 c103 -91 178 -135 260 -150 167 -32 345 75
395 237 32 104 32 103 -54 103 l-74 0 -7 -40 c-16 -93 -105 -163 -207 -163
-78 1 -127 27 -236 124 -77 68 -95 79 -126 79 l-36 0 0 -58z"/>
</g>
</svg>
